<?xml version="1.0" encoding="UTF-8"?>
<svg version="1.1" xmlns="http://www.w3.org/2000/svg" width="1024" height="1024">
    <path d="M0 0 C1.42079865 0.00415421 1.42079865 0.00415421 2.87030029 0.00839233 C19.14968358 0.06405566 35.28892788 0.67210585 51.5 2.25 C52.5410791 2.34651855 53.5821582 2.44303711 54.65478516 2.54248047 C103.93822623 7.24754641 152.75356985 22.42612223 196.64990234 45.28808594 C198.45511966 46.22666554 200.26790942 47.14909041 202.08203125 48.0703125 C228.10725684 61.44753332 252.16051556 78.5711909 274.3515625 97.57421875 C278.19067275 100.85558041 282.12254266 104.02051439 286.0625 107.1796875 C288.68840262 109.41002146 291.08898915 111.79052662 293.5 114.25 C294.263125 114.971875 295.02625 115.69375 295.8125 116.4375 C297.5 118.25 297.5 118.25 297.5 120.25 C298.07621094 120.48976563 298.65242187 120.72953125 299.24609375 120.9765625 C301.95749956 122.50848329 303.52441882 124.27073052 305.5625 126.625 C308.88850236 130.42847089 312.28011053 134.13998925 315.75 137.8125 C323.64541601 146.30257343 330.57295858 155.67669688 337.2578125 165.13671875 C339.32334028 168.18037036 339.32334028 168.18037036 341.5 170.25 C342.58864442 171.87865802 343.64687959 173.52774617 344.6875 175.1875 C345.30496094 176.16847656 345.92242188 177.14945313 346.55859375 178.16015625 C347.19925781 179.17980469 347.83992187 180.19945312 348.5 181.25 C349.74895731 183.20899849 350.998916 185.167359 352.25 187.125 C353.90226164 189.71148435 355.5272623 192.29656186 357.078125 194.9453125 C358.42837508 197.33205323 358.42837508 197.33205323 360.5 199.25 C361.67194969 201.44364941 362.78686078 203.64011886 363.875 205.875 C364.59435826 207.3401846 365.31445685 208.80500587 366.03515625 210.26953125 C366.42848145 211.06955566 366.82180664 211.86958008 367.22705078 212.69384766 C368.56261076 215.37572587 369.93202851 218.0381709 371.30859375 220.69921875 C388.69760284 254.48987549 400.14704191 289.71779315 408.81079102 326.57739258 C409.38733974 329.19942888 409.38733974 329.19942888 410.5 331.25 C410.94050843 334.13733253 411.28280952 337.03054808 411.62475586 339.9309082 C411.71378174 340.68331787 411.80280762 341.43572754 411.89453125 342.2109375 C411.98943848 343.01756836 412.0843457 343.82419922 412.18212891 344.65527344 C412.5172891 347.39112789 412.88723099 350.12082569 413.26171875 352.8515625 C424.8976423 439.69147515 401.85711414 532.78666098 354.5 606.25 C354.09458984 606.88421875 353.68917969 607.5184375 353.27148438 608.171875 C343.21772917 623.83664579 332.1370354 638.7209714 319.84765625 652.69628906 C317.73881875 655.12756476 315.71454087 657.62543947 313.6875 660.125 C308.5534429 666.43812627 303.33682822 672.5709239 297.5 678.25 C296.4171875 679.3946875 296.4171875 679.3946875 295.3125 680.5625 C293.5 682.25 293.5 682.25 291.5 682.25 C291.28214844 682.80300781 291.06429687 683.35601563 290.83984375 683.92578125 C289.07423991 686.98856342 286.67488957 689.11409884 284.0625 691.4375 C283.53043945 691.91799805 282.99837891 692.39849609 282.45019531 692.89355469 C278.08313808 696.80554853 273.57512178 700.53106295 269.0078125 704.20703125 C266.82635616 705.98413665 264.7184245 707.8086734 262.625 709.6875 C252.69490565 718.43763562 241.82586531 725.94993175 230.8125 733.25 C230.15669952 733.68609589 229.50089905 734.12219177 228.82522583 734.57150269 C219.3377626 740.86887643 209.79110492 746.87044317 199.67236328 752.11376953 C197.29461885 753.35742233 194.94256931 754.64327154 192.58984375 755.93359375 C126.81763072 791.68599194 45.92101657 807.13563476 -28.5 797.25 C-29.52496582 797.12641113 -30.54993164 797.00282227 -31.60595703 796.87548828 C-89.67595555 789.86220344 -148.81947744 770.47845302 -198.5 739.25 C-199.52649658 738.61094727 -199.52649658 738.61094727 -200.57373047 737.95898438 C-215.91003163 728.37601443 -230.70454884 717.95461012 -244.5 706.25 C-245.5318991 705.39114193 -246.56448427 704.53310767 -247.59765625 703.67578125 C-264.95495362 689.21701948 -282.591584 673.68247175 -296.484375 655.82421875 C-298.37507987 653.40953946 -300.35252327 651.09314837 -302.36669922 648.78125 C-309.12028129 641.00020803 -315.11436691 632.71542118 -321.04589844 624.29785156 C-322.01601558 622.93160868 -322.99853662 621.57408998 -323.99316406 620.22558594 C-327.5 615.45697909 -327.5 615.45697909 -327.5 613.25 C-328.16 613.25 -328.82 613.25 -329.5 613.25 C-329.974375 612.239375 -330.44875 611.22875 -330.9375 610.1875 C-333.73024424 604.58199184 -337.03123938 599.28106428 -340.28125 593.93359375 C-342.4198667 590.40845311 -344.4683285 586.83774716 -346.5 583.25 C-346.83 583.58 -347.16 583.91 -347.5 584.25 C-348.16 584.25 -348.82 584.25 -349.5 584.25 C-349.40138672 582.72439453 -349.40138672 582.72439453 -349.30078125 581.16796875 C-349.52493067 576.75969685 -350.58909573 574.41479441 -352.6875 570.5625 C-353.33133655 569.34674743 -353.97190997 568.12926173 -354.609375 566.91015625 C-354.92841797 566.30316895 -355.24746094 565.69618164 -355.57617188 565.07080078 C-361.5 553.39534884 -361.5 553.39534884 -361.5 549.25 C-362.16 548.92 -362.82 548.59 -363.5 548.25 C-364.25854492 546.63378906 -364.25854492 546.63378906 -364.98046875 544.515625 C-365.25415283 543.72373779 -365.52783691 542.93185059 -365.80981445 542.1159668 C-366.09945068 541.25269775 -366.38908691 540.38942871 -366.6875 539.5 C-366.99067139 538.61417236 -367.29384277 537.72834473 -367.60620117 536.81567383 C-368.57922309 533.9632294 -369.54047405 531.10701009 -370.5 528.25 C-370.82258789 527.29593262 -371.14517578 526.34186523 -371.47753906 525.35888672 C-379.5 501.62745964 -379.5 501.62745964 -379.5 496.25 C-380.16 495.92 -380.82 495.59 -381.5 495.25 C-382.04711914 492.92285156 -382.04711914 492.92285156 -382.47265625 489.890625 C-383.09454864 485.78188816 -383.78261614 481.72881527 -384.68359375 477.671875 C-387.79780044 463.59708692 -389.95823134 449.58096048 -391.5 435.25 C-392.16 435.25 -392.82 435.25 -393.5 435.25 C-393.17 434.59 -392.84 433.93 -392.5 433.25 C-392.5931067 430.97639438 -392.75138162 428.70538698 -392.9375 426.4375 C-398.71913671 344.37736156 -374.01040623 258.06291746 -331.5 188.25 C-330.31141252 186.29232651 -329.12372254 184.33410739 -327.9375 182.375 C-327.48246094 181.63507813 -327.02742188 180.89515625 -326.55859375 180.1328125 C-325.35554219 178.13211458 -325.35554219 178.13211458 -324.5 175.25 C-322.83755094 173.57912637 -321.17030434 171.91302104 -319.5 170.25 C-318.12305179 168.34324945 -316.79179174 166.40294095 -315.5 164.4375 C-307.8539142 153.09275818 -298.98052278 142.64385711 -289.6875 132.62109375 C-287.78178782 130.55543787 -285.9456799 128.45267421 -284.125 126.3125 C-280.94512164 122.65983397 -277.58829307 119.19563316 -274.1875 115.75 C-273.65914551 115.20867432 -273.13079102 114.66734863 -272.58642578 114.10961914 C-271.26314884 112.78313763 -269.88544705 111.51140855 -268.5 110.25 C-267.84 110.25 -267.18 110.25 -266.5 110.25 C-266.5 109.59 -266.5 108.93 -266.5 108.25 C-265.2421875 106.9453125 -265.2421875 106.9453125 -263.375 105.375 C-262.63507813 104.74851562 -261.89515625 104.12203125 -261.1328125 103.4765625 C-259.82957031 102.37441406 -259.82957031 102.37441406 -258.5 101.25 C-257.52804687 100.39148438 -256.55609375 99.53296875 -255.5546875 98.6484375 C-234.73543836 80.30751987 -211.78222608 64.62347319 -187.5 51.25 C-186.57364746 50.73824219 -185.64729492 50.22648437 -184.69287109 49.69921875 C-154.15031256 32.97026115 -122.05633738 21.30319094 -88.5 12.25 C-86.48021565 11.70406051 -84.46067445 11.15722047 -82.44140625 10.609375 C-81.12378296 10.25311035 -81.12378296 10.25311035 -79.77954102 9.88964844 C-78.00530448 9.39179048 -76.24819908 8.83273303 -74.5 8.25 C-72.46090266 8.02415061 -70.42148785 7.80092427 -68.38085938 7.58935547 C-62.14508839 6.85480279 -55.95042481 5.79743347 -49.75 4.8125 C-48.35940533 4.59290679 -46.96878048 4.37350466 -45.578125 4.15429688 C-44.89613037 4.04654938 -44.21413574 3.93880188 -43.51147461 3.82778931 C-42.13559114 3.61129288 -40.75944855 3.39643712 -39.38305664 3.18319702 C-36.34961848 2.71150776 -33.32625286 2.21748887 -30.30859375 1.65283203 C-20.22733144 -0.16056576 -10.20710901 -0.05819345 0 0 Z " fill="#EEEEEE" transform="translate(501.5,111.75)"/>
    <path d="M0 0 C0.82064941 0.10683105 1.64129883 0.21366211 2.48681641 0.32373047 C52.27090376 7.08672605 103.44886701 31.48338305 140 66 C141.24596449 67.06722946 142.49593956 68.12979557 143.75 69.1875 C166.38180458 89.00761399 166.38180458 89.00761399 170.1875 100.625 C169.6773721 109.80730211 162.97743221 115.5509649 156.75 121.5625 C155.92886719 122.37396484 155.10773438 123.18542969 154.26171875 124.02148438 C150.61301939 127.60368604 146.92865241 131.10481246 143.046875 134.43359375 C137.92809604 138.84754834 133.24245116 143.68950793 128.5 148.5 C123.10547267 153.97192371 117.71828999 159.34250089 111.88085938 164.34179688 C108.59737674 167.23658063 105.56325729 170.37592569 102.5 173.5 C98.03712514 178.01133648 93.56676837 182.41534369 88.7109375 186.5078125 C86.15014573 188.74119711 83.80257751 191.1722103 81.4453125 193.6171875 C79.25950269 195.7084758 77.91356019 196.01383037 74.875 196.5 C68.40355854 195.6649753 65.12986526 191.19207782 60.7265625 186.66015625 C40.51918141 165.96230475 15.22534544 152.8508789 -13 147 C-14.03125 146.77441406 -15.0625 146.54882812 -16.125 146.31640625 C-45.36037288 141.01749492 -76.07945132 145.61723797 -101.08984375 162.02734375 C-118.34525803 174.56642929 -131.12049994 189.16052045 -141 208 C-141.53367187 209.00160156 -142.06734375 210.00320313 -142.6171875 211.03515625 C-145.90790434 217.64216545 -148.18193078 224.36515917 -150.25 231.4375 C-150.61955811 232.68768921 -150.61955811 232.68768921 -150.99658203 233.96313477 C-154.78914446 247.55948419 -155.40680026 261.10865586 -155.375 275.125 C-155.37478851 275.98617432 -155.37457703 276.84734863 -155.37435913 277.73461914 C-155.34291941 290.55964308 -154.68905581 302.64058617 -151 315 C-150.66097656 316.26972656 -150.32195312 317.53945313 -149.97265625 318.84765625 C-144.19275411 338.40881972 -132.86457219 355.27206618 -119 370 C-118.46117187 370.60328125 -117.92234375 371.2065625 -117.3671875 371.828125 C-103.41341783 386.83368636 -82.66774129 397.15870984 -63 402 C-61.9179126 402.27384521 -61.9179126 402.27384521 -60.81396484 402.55322266 C-29.66741546 409.70463851 6.50014922 401.66497274 33.453125 385.28515625 C46.16153822 377.23763945 57.05794542 367.41573295 67.06640625 356.25292969 C70.805991 352.0970045 70.805991 352.0970045 73 351 C77.90052344 350.75316482 81.82385921 351.36424303 85.55688477 354.66455078 C86.7057104 355.82132124 87.83317404 356.99959532 88.94140625 358.1953125 C89.55338364 358.82098114 90.16536102 359.44664978 90.79588318 360.09127808 C92.73792701 362.08439123 94.65048706 364.10310126 96.5625 366.125 C98.47956826 368.11475217 100.40236605 370.09883752 102.32577515 372.0824585 C103.56271937 373.35899999 104.79730827 374.63782827 106.02944946 375.91900635 C109.61273092 379.63211998 113.27520439 383.13994074 117.22631836 386.46435547 C121.38671074 390.06640201 125.14908767 394.11293704 129 398.0390625 C132.93575155 402.02093614 136.97683063 405.78772179 141.21875 409.44140625 C143.41700048 411.36487542 145.46655152 413.40398387 147.5 415.5 C151.50111935 419.54907798 155.68090969 423.29674956 160 427 C161.62921774 428.41181408 163.25418338 429.828549 164.875 431.25 C165.98488281 432.21679688 165.98488281 432.21679688 167.1171875 433.203125 C169.97566011 435.9311279 171.33997951 438.09512427 171.5625 442 C171.29023985 451.89745734 162.77622312 459.6795027 156.390625 466.45703125 C154.42661921 468.54619427 152.58002768 470.67064848 150.75 472.875 C140.60535111 484.4587735 128.43073481 494.01044201 116 503 C115.38576172 503.4444043 114.77152344 503.88880859 114.13867188 504.34667969 C75.9441802 531.61947534 30.32356031 545.94798452 -16 551 C-17.15886719 551.13148438 -18.31773437 551.26296875 -19.51171875 551.3984375 C-82.21674748 557.33975904 -149.1720207 539.61481572 -201 504 C-201.58620117 503.5978125 -202.17240234 503.195625 -202.77636719 502.78125 C-223.30317317 488.60191289 -242.71573985 471.79840954 -258 452 C-258.51578613 451.33887207 -259.03157227 450.67774414 -259.56298828 449.99658203 C-268.90381194 437.95304243 -276.90405313 425.48731385 -284 412 C-284.43795898 411.16807129 -284.87591797 410.33614258 -285.32714844 409.47900391 C-296.49500081 387.91684836 -304.42913886 364.6072549 -310 341 C-310.22526367 340.04657715 -310.45052734 339.0931543 -310.68261719 338.11083984 C-324.68328421 277.28483212 -318.24491954 214.0300295 -293 157 C-292.64180176 156.18192871 -292.28360352 155.36385742 -291.91455078 154.52099609 C-283.74686461 136.0287565 -273.38532822 118.96276366 -261 103 C-260.29101562 102.07832031 -259.58203125 101.15664063 -258.8515625 100.20703125 C-254.86319094 95.12303984 -250.64696723 90.28145296 -246.2890625 85.51171875 C-244.74739771 83.8200968 -243.22154556 82.11394349 -241.7109375 80.39453125 C-237.69644124 75.83511196 -233.63941098 71.59415525 -228.98828125 67.68359375 C-227.68756962 66.58220532 -226.41228626 65.44987989 -225.16796875 64.28515625 C-185.95032505 27.6974926 -132.55263773 6.30024487 -80 -1 C-79.17387207 -1.11859375 -78.34774414 -1.2371875 -77.49658203 -1.359375 C-51.76570218 -4.92529607 -25.6462671 -3.42582349 0 0 Z " fill="#1B1B1B" transform="translate(574,239)"/>
    <path d="M0 0 C0.66 0 1.32 0 2 0 C3.74563718 2.45037922 5.38990218 4.90044587 7 7.4375 C7.8915896 8.83474828 8.78723838 10.22941714 9.6875 11.62109375 C10.08324219 12.2442749 10.47898437 12.86745605 10.88671875 13.50952148 C11.9456941 15.1599193 11.9456941 15.1599193 14 16 C14.53625 16.969375 15.0725 17.93875 15.625 18.9375 C28.30277661 41.67481675 51.96324964 60.32319742 73 75 C72.67 75.66 72.34 76.32 72 77 C52.09867039 62.4229222 32.99810969 46.77691914 18 27 C17.44892578 26.27699707 16.89785156 25.55399414 16.33007812 24.80908203 C14.43830072 22.31824179 12.56047792 19.8175027 10.6875 17.3125 C10.08800537 16.51618164 9.48851074 15.71986328 8.87084961 14.89941406 C5.33802854 10.11471201 2.49920682 5.3995209 0 0 Z " fill="#0C0B0B" transform="translate(298,664)"/>
    <path d="M0 0 C3.02977429 1.35231187 5.08472613 2.85480543 7.390625 5.23046875 C8.01372559 5.8651709 8.63682617 6.49987305 9.27880859 7.15380859 C10.25454834 8.16048584 10.25454834 8.16048584 11.25 9.1875 C15.75898644 13.77428347 20.26164638 18.24684434 25.1796875 22.3984375 C27.38686436 24.34037422 29.43537614 26.40738124 31.5 28.5 C37.33146302 34.40172161 43.60508583 39.72419581 50 45 C49.34 45.66 48.68 46.32 48 47 C47.45730469 46.44570313 46.91460938 45.89140625 46.35546875 45.3203125 C45.64003906 44.59585938 44.92460938 43.87140625 44.1875 43.125 C43.47980469 42.40570312 42.77210938 41.68640625 42.04296875 40.9453125 C39.95600806 38.84641063 39.95600806 38.84641063 37 37 C37 36.34 37 35.68 37 35 C36.46890625 34.79761719 35.9378125 34.59523438 35.390625 34.38671875 C31.95783421 32.39547572 29.49100784 29.6553508 26.75 26.8125 C22.56008832 22.53834547 18.33661871 18.4255944 13.76953125 14.55078125 C11.25525495 12.34732056 8.94530758 9.95982151 6.609375 7.5703125 C4.8484933 5.79666638 4.8484933 5.79666638 2.0625 3.6875 C1.381875 3.130625 0.70125 2.57375 0 2 C0 1.34 0 0.68 0 0 Z " fill="#0B0A0A" transform="translate(690,626)"/>
    <path d="M0 0 C3.72003155 3.03676045 7.13490347 6.0293358 10.25 9.6875 C17.29208477 17.92422415 24.9768636 25.24452277 33.4921875 31.9296875 C36.16807189 34.13875094 38.58254933 36.51323175 41 39 C36.48092252 38.11191045 33.74518179 35.54676955 30.375 32.5625 C29.73199951 31.99917969 29.08899902 31.43585937 28.42651367 30.85546875 C6.82422152 11.65114178 6.82422152 11.65114178 0 2 C0 1.34 0 0.68 0 0 Z " fill="#F6F5F6" transform="translate(318,694)"/>
    <path d="M0 0 C15.23171194 2.2175046 32.64044592 25.44660811 43 36 C42.505 36.99 42.505 36.99 42 38 C41.48203857 37.47156494 40.96407715 36.94312988 40.43041992 36.39868164 C26.87354456 22.46736542 26.87354456 22.46736542 12 10 C11.46697266 9.60071289 10.93394531 9.20142578 10.38476562 8.79003906 C7.67811679 6.76391026 4.96668817 4.74690265 2.23828125 2.75 C1.49964844 2.1725 0.76101563 1.595 0 1 C0 0.67 0 0.34 0 0 Z " fill="#0B0B0B" transform="translate(693,290)"/>
    <path d="M0 0 C4.35990873 -0.07418046 8.71948279 -0.12861544 13.07983398 -0.16479492 C14.56297199 -0.17987768 16.04606544 -0.20034689 17.52905273 -0.22631836 C19.66140745 -0.26272616 21.79317235 -0.27973073 23.92578125 -0.29296875 C25.85031128 -0.31653442 25.85031128 -0.31653442 27.8137207 -0.34057617 C31 0 31 0 34 3 C23.11 3 12.22 3 1 3 C0.67 2.01 0.34 1.02 0 0 Z " fill="#252526" transform="translate(514,236)"/>
    <path d="M0 0 C0.33 0 0.66 0 1 0 C1 4.95 1 9.9 1 15 C1.33 15 1.66 15 2 15 C2 24.57 2 34.14 2 44 C1.67 44 1.34 44 1 44 C-1.33390528 36.86913526 -1.27249983 29.85847089 -1.20581055 22.42651367 C-1.18745243 20.30700733 -1.18530209 18.18793733 -1.18554688 16.06835938 C-1.14493333 4.82585115 -1.14493333 4.82585115 0 0 Z " fill="#2A292A" transform="translate(416,492)"/>
    <path d="M0 0 C0 0.99 0 1.98 0 3 C-6.37457348 3.95468258 -12.56061653 4.1202324 -19 4.0625 C-19.96550781 4.05798828 -20.93101562 4.05347656 -21.92578125 4.04882812 C-24.28392089 4.03715417 -26.64192602 4.02078021 -29 4 C-27.33580663 1.97351261 -26.42271804 1.08349695 -23.81103516 0.56762695 C-22.97878418 0.54144287 -22.1465332 0.51525879 -21.2890625 0.48828125 C-19.91621094 0.43510742 -19.91621094 0.43510742 -18.515625 0.38085938 C-17.08476563 0.34702148 -17.08476563 0.34702148 -15.625 0.3125 C-14.20574219 0.26125977 -14.20574219 0.26125977 -12.7578125 0.20898438 C-8.50337299 0.06258863 -4.2570361 -0.01376913 0 0 Z " fill="#212121" transform="translate(556,643)"/>
    <path d="M0 0 C0.99 0.33 1.98 0.66 3 1 C2.10539062 1.68964844 1.21078125 2.37929688 0.2890625 3.08984375 C-6.40550342 8.28249513 -12.90332418 13.54580826 -19.109375 19.3203125 C-21 21 -21 21 -23 22 C-19.63956389 14.48454189 -12.50984577 9.43156261 -6.1875 4.4375 C-5.62442139 3.98358887 -5.06134277 3.52967773 -4.48120117 3.06201172 C-2.85546875 1.80859375 -2.85546875 1.80859375 0 0 Z " fill="#0A0A0A" transform="translate(364,291)"/>
    <path d="M0 0 C0.33 0 0.66 0 1 0 C1.50579714 3.04080421 2.00480759 6.08246646 2.5 9.125 C2.64308594 9.9809375 2.78617187 10.836875 2.93359375 11.71875 C3.65695734 16.19671505 4.17918816 20.44563435 4 25 C3.67 23.68 3.34 22.36 3 21 C2.34 21 1.68 21 1 21 C0.07907719 16.34462644 -0.12205997 11.85314567 -0.0625 7.125 C-0.05798828 6.43664062 -0.05347656 5.74828125 -0.04882812 5.0390625 C-0.03716336 3.35933665 -0.01923271 1.67965625 0 0 Z " fill="#F4F4F3" transform="translate(112,550)"/>
    <path d="M0 0 C2.66166813 0.38612207 5.32817947 0.6882876 8 1 C8 1.33 8 1.66 8 2 C-1.405 2.495 -1.405 2.495 -11 3 C-11 2.01 -11 1.02 -11 0 C-6.96406162 -0.6985278 -3.91810909 -1.18730578 0 0 Z M-15 3 C-11 4 -11 4 -11 4 Z " fill="#E4E3E3" transform="translate(523,384)"/>
    <path d="M0 0 C6.40957546 5.27009538 12.18031542 11.0969123 18 17 C18.9989322 18.00106667 19.99833195 19.00167084 21 20 C18 20 18 20 16.00708008 18.37939453 C15.26868896 17.63802246 14.53029785 16.89665039 13.76953125 16.1328125 C12.96708984 15.32972656 12.16464844 14.52664063 11.33789062 13.69921875 C10.50451172 12.84972656 9.67113281 12.00023437 8.8125 11.125 C7.96751953 10.28324219 7.12253906 9.44148437 6.25195312 8.57421875 C0 2.26675999 0 2.26675999 0 0 Z " fill="#F5F5F5" transform="translate(686,619)"/>
    <path d="M0 0 C1.63001953 0.15275391 1.63001953 0.15275391 3.29296875 0.30859375 C4.12441406 0.39238281 4.95585937 0.47617188 5.8125 0.5625 C5.8125 0.8925 5.8125 1.2225 5.8125 1.5625 C5.16176514 1.61784912 4.51103027 1.67319824 3.84057617 1.73022461 C0.89337901 1.98303693 -2.0533006 2.24145326 -5 2.5 C-6.02416016 2.58701172 -7.04832031 2.67402344 -8.10351562 2.76367188 C-9.08642578 2.85068359 -10.06933594 2.93769531 -11.08203125 3.02734375 C-11.98800049 3.105896 -12.89396973 3.18444824 -13.82739258 3.26538086 C-16.33430749 3.50296098 -16.33430749 3.50296098 -19.1875 4.5625 C-21.5281065 4.28480092 -23.86374308 3.95710023 -26.1875 3.5625 C-26.1875 3.2325 -26.1875 2.9025 -26.1875 2.5625 C-24.39892578 2.36333984 -24.39892578 2.36333984 -22.57421875 2.16015625 C-21.00779322 1.98194017 -19.44138802 1.80354544 -17.875 1.625 C-17.08931641 1.53798828 -16.30363281 1.45097656 -15.49414062 1.36132812 C-14.73681641 1.27431641 -13.97949219 1.18730469 -13.19921875 1.09765625 C-12.50272217 1.019104 -11.80622559 0.94055176 -11.08862305 0.85961914 C-3.45126702 -0.33399358 -3.45126702 -0.33399358 0 0 Z " fill="#E8E7E7" transform="translate(487.1875,112.4375)"/>
    <path d="M0 0 C0.33 0 0.66 0 1 0 C1.28100502 7.16562789 0.20443195 13.94546999 -1 21 C-1.33 21 -1.66 21 -2 21 C-2.05420701 18.43721301 -2.09377007 15.87558517 -2.125 13.3125 C-2.15013672 12.2306543 -2.15013672 12.2306543 -2.17578125 11.12695312 C-2.21391569 6.95123219 -1.8789919 3.7505862 0 0 Z " fill="#F5F5F4" transform="translate(114,456)"/>
    <path d="M0 0 C0.33 0 0.66 0 1 0 C1 3.96 1 7.92 1 12 C0.01 12 -0.98 12 -2 12 C-2.05422947 10.5629191 -2.09289723 9.12524538 -2.125 7.6875 C-2.14820313 6.88699219 -2.17140625 6.08648438 -2.1953125 5.26171875 C-2 3 -2 3 0 0 Z " fill="#E7E7E6" transform="translate(420,522)"/>
    <path d="M0 0 C0.77601563 -0.00773438 1.55203125 -0.01546875 2.3515625 -0.0234375 C3.01929688 0.10804688 3.68703125 0.23953125 4.375 0.375 C5.035 1.365 5.695 2.355 6.375 3.375 C1.425 3.375 -3.525 3.375 -8.625 3.375 C-4.07054455 -0.04084158 -4.07054455 -0.04084158 0 0 Z " fill="#E6E6E5" transform="translate(549.625,789.625)"/>
    <path d="M0 0 C0.89203125 0.20367188 1.7840625 0.40734375 2.703125 0.6171875 C3.37859375 0.78476562 4.0540625 0.95234375 4.75 1.125 C4.75 1.455 4.75 1.785 4.75 2.125 C-0.73946087 3.24529814 -4.08430559 2.91717969 -9.25 1.125 C-5.82794357 -1.03377391 -3.8855015 -0.92025036 0 0 Z " fill="#E7E6E6" transform="translate(509.25,637.875)"/>
    <path d="M0 0 C-0.33 3.63 -0.66 7.26 -1 11 C-1.99 10.67 -2.98 10.34 -4 10 C-3.88637738 8.5199159 -3.75877092 7.04089926 -3.625 5.5625 C-3.55539062 4.73878906 -3.48578125 3.91507812 -3.4140625 3.06640625 C-3.27742188 2.38449219 -3.14078125 1.70257813 -3 1 C-1 0 -1 0 0 0 Z " fill="#E1E0E0" transform="translate(423,480)"/>
    <path d="M0 0 C2.42348595 0.08655307 3.68385658 0.6766715 5.375 2.40625 C6.62094897 3.90705217 7.81389216 5.45147031 9 7 C5.05957221 7 3.91141781 5.53815912 1 3 C0.34 2.34 -0.32 1.68 -1 1 C-0.67 0.67 -0.34 0.34 0 0 Z " fill="#242324" transform="translate(653,591)"/>
    <path d="M0 0 C0 2.97 0 5.94 0 9 C-0.99 9 -1.98 9 -3 9 C-3 6.36 -3 3.72 -3 1 C-1 0 -1 0 0 0 Z " fill="#E7E8E7" transform="translate(421,494)"/>
    <path d="M0 0 C2.76223278 2.76223278 2.57856291 5.20706617 3 9 C2.01 9.33 1.02 9.66 0 10 C0.020625 9.2575 0.04125 8.515 0.0625 7.75 C0.10240811 5.05832211 0.10240811 5.05832211 -0.5625 2.75 C-0.706875 2.1725 -0.85125 1.595 -1 1 C-0.67 0.67 -0.34 0.34 0 0 Z " fill="#252525" transform="translate(741,334)"/>
    <path d="M0 0 C0 0.66 0 1.32 0 2 C-4.625 4.125 -4.625 4.125 -8 3 C-8 2.34 -8 1.68 -8 1 C-2.25 -1.125 -2.25 -1.125 0 0 Z " fill="#E4E3E3" transform="translate(628,775)"/>
    <path d="M0 0 C0.99 0 1.98 0 3 0 C2.67 2.31 2.34 4.62 2 7 C1.01 7 0.02 7 -1 7 C-0.67 4.69 -0.34 2.38 0 0 Z " fill="#212122" transform="translate(264,446)"/>
    <path d="M0 0 C0 0.66 0 1.32 0 2 C-2.31 2.33 -4.62 2.66 -7 3 C-7 2.01 -7 1.02 -7 0 C-3.98968256 -0.93423645 -3.13349732 -1.04449911 0 0 Z M-10 3 C-7 4 -7 4 -7 4 Z " fill="#E4E3E3" transform="translate(507,387)"/>
    <path d="M0 0 C-3.08888522 2.05925681 -3.70935927 2.2390374 -7.1875 2.125 C-9.0746875 2.063125 -9.0746875 2.063125 -11 2 C-7.00042393 -0.06874624 -4.43559483 -1.37656391 0 0 Z " fill="#F5F4F3" transform="translate(616,897)"/>
    <path d="M0 0 C0.66 0.33 1.32 0.66 2 1 C-0.31 3.31 -2.62 5.62 -5 8 C-5.66 7.34 -6.32 6.68 -7 6 C-4.69 4.02 -2.38 2.04 0 0 Z " fill="#F5F5F4" transform="translate(711,724)"/>
    <path d="M0 0 C2.29633824 3.44450737 2.54016485 5.93812283 3 10 C2.67 9.34 2.34 8.68 2 8 C1.34 8 0.68 8 0 8 C0 5.36 0 2.72 0 0 Z " fill="#F5F4F3" transform="translate(124,611)"/>
    <path d="M0 0 C2 3 2 3 1.75 6.0625 C1 9 1 9 -1 11 C-1.125 3.375 -1.125 3.375 0 0 Z " fill="#E2E2E2" transform="translate(427,457)"/>
    <path d="M0 0 C0.99 0.99 1.98 1.98 3 3 C2.67 3.66 2.34 4.32 2 5 C1.34 4.34 0.68 3.68 0 3 C0 2.01 0 1.02 0 0 Z " fill="#E5E5E7" transform="translate(192,753)"/>
    <path d="M0 0 C0.99 0 1.98 0 3 0 C2.67 0.66 2.34 1.32 2 2 C1.01 1.67 0.02 1.34 -1 1 C-0.67 0.67 -0.34 0.34 0 0 Z " fill="#E6E7E6" transform="translate(603,902)"/>
    <path d="M0 0 C1.65 0 3.3 0 5 0 C5 0.33 5 0.66 5 1 C3.35 1 1.7 1 0 1 C0 0.67 0 0.34 0 0 Z " fill="#E9E9E8" transform="translate(482,911)"/>
    <path d="M0 0 C1.65 0 3.3 0 5 0 C5 0.33 5 0.66 5 1 C3.35 1 1.7 1 0 1 C0 0.67 0 0.34 0 0 Z " fill="#E7E7E7" transform="translate(596,903)"/>
    <path d="M0 0 C0.33 0 0.66 0 1 0 C1 1.65 1 3.3 1 5 C0.67 5 0.34 5 0 5 C0 3.35 0 1.7 0 0 Z " fill="#E4E2E2" transform="translate(879,340)"/>
    <path d="M0 0 C0.99 0 1.98 0 3 0 C3 0.66 3 1.32 3 2 C2.01 1.67 1.02 1.34 0 1 C0 0.67 0 0.34 0 0 Z " fill="#E5E6E3" transform="translate(733,176)"/>
    <path d="M0 0 C1 4 1 4 1 4 Z " fill="#E5E5E3" transform="translate(304,852)"/>
    <path d="M0 0 C0.99 1.485 0.99 1.485 2 3 C1.34 3 0.68 3 0 3 C0 2.01 0 1.02 0 0 Z " fill="#E6E5E5" transform="translate(216,781)"/>
    <path d="M0 0 C0.99 0.33 1.98 0.66 3 1 C2.01 1 1.02 1 0 1 C0 0.67 0 0.34 0 0 Z " fill="#E6E7E7" transform="translate(130,644)"/>
    <path d="M0 0 C0 3 0 3 0 3 Z " fill="#E7E7E7" transform="translate(129,638)"/>
    <path d="M0 0 C0.99 0.33 1.98 0.66 3 1 C2.01 1 1.02 1 0 1 C0 0.67 0 0.34 0 0 Z " fill="#E2E2E1" transform="translate(869,324)"/>
    <path d="M0 0 C3 1 3 1 3 1 Z " fill="#EAEAE8" transform="translate(629,895)"/>
    <path d="" fill="#E6E7E7" transform="translate(0,0)"/>
    <path d="M0 0 C0.66 0.66 1.32 1.32 2 2 C1.34 2 0.68 2 0 2 C0 1.34 0 0.68 0 0 Z " fill="#E4E5E4" transform="translate(145,678)"/>
    <path d="" fill="#E4E6E5" transform="translate(0,0)"/>
    <path d="" fill="#E8E9E8" transform="translate(0,0)"/>
    <path d="" fill="#E5E6E6" transform="translate(0,0)"/>
    <path d="" fill="#E8E7E7" transform="translate(0,0)"/>
    <path d="M0 0 C0.33 0.66 0.66 1.32 1 2 C0.34 1.67 -0.32 1.34 -1 1 C-0.67 0.67 -0.34 0.34 0 0 Z " fill="#E9E8E9" transform="translate(916,555)"/>
    <path d="" fill="#E9E9E8" transform="translate(0,0)"/>
    <path d="" fill="#E9EAE9" transform="translate(0,0)"/>
    <path d="" fill="#E8E8E8" transform="translate(0,0)"/>
    <path d="M0 0 C0.99 0.495 0.99 0.495 2 1 C1.01 1.495 1.01 1.495 0 2 C0 1.34 0 0.68 0 0 Z " fill="#E7E6E6" transform="translate(136,363)"/>
    <path d="M0 0 C3 1 3 1 3 1 Z " fill="#E3E3E3" transform="translate(311,161)"/>
    <path d="M0 0 C3 1 3 1 3 1 Z " fill="#E3E5E3" transform="translate(368,136)"/>
    <path d="M0 0 C3 1 3 1 3 1 Z " fill="#E8E8E7" transform="translate(473,112)"/>
    <path d="M0 0 C2 1 2 1 2 1 Z " fill="#EBEBE9" transform="translate(544,911)"/>
    <path d="M0 0 C2 1 2 1 2 1 Z " fill="#EBEAEA" transform="translate(562,909)"/>
    <path d="M0 0 C2 1 2 1 2 1 Z " fill="#E9E9E8" transform="translate(610,900)"/>
    <path d="M0 0 C2 1 2 1 2 1 Z " fill="#E8E7E9" transform="translate(400,895)"/>
    <path d="" fill="#E7E7E8" transform="translate(0,0)"/>
    <path d="M0 0 C2 1 2 1 2 1 Z " fill="#E8E8E7" transform="translate(376,887)"/>
    <path d="M0 0 C2 1 2 1 2 1 Z " fill="#E6E7E5" transform="translate(691,870)"/>
    <path d="M0 0 C2 1 2 1 2 1 Z " fill="#E4E3E5" transform="translate(329,867)"/>
    <path d="M0 0 C2 1 2 1 2 1 Z " fill="#E5E6E4" transform="translate(307,855)"/>
    <path d="M0 0 C2 1 2 1 2 1 Z " fill="#E5E7E6" transform="translate(732,846)"/>
    <path d="M0 0 C2 1 2 1 2 1 Z " fill="#E2E5E4" transform="translate(240,806)"/>
    <path d="" fill="#E5E3E3" transform="translate(0,0)"/>
    <path d="" fill="#E7E6E7" transform="translate(0,0)"/>
    <path d="M0 0 C2 1 2 1 2 1 Z " fill="#E4E4E3" transform="translate(196,759)"/>
    <path d="M0 0 C2 1 2 1 2 1 Z " fill="#E5E5E4" transform="translate(186,747)"/>
    <path d="M0 0 C2 1 2 1 2 1 Z " fill="#E3E2E3" transform="translate(180,742)"/>
    <path d="M0 0 C2 1 2 1 2 1 Z " fill="#E4E4E4" transform="translate(841,741)"/>
    <path d="" fill="#E5E4E3" transform="translate(0,0)"/>
    <path d="M0 0 C2 1 2 1 2 1 Z " fill="#E3E3E1" transform="translate(845,736)"/>
    <path d="M0 0 C2 1 2 1 2 1 Z " fill="#E2E2E2" transform="translate(854,721)"/>
    <path d="" fill="#E4E6E5" transform="translate(0,0)"/>
    <path d="" fill="#E5E6E7" transform="translate(0,0)"/>
    <path d="" fill="#E5E2E1" transform="translate(0,0)"/>
    <path d="" fill="#E8E8E5" transform="translate(0,0)"/>
    <path d="" fill="#E7E8E7" transform="translate(0,0)"/>
    <path d="" fill="#E7E6E6" transform="translate(0,0)"/>
    <path d="" fill="#EAEAEA" transform="translate(0,0)"/>
    <path d="" fill="#EAE9E9" transform="translate(0,0)"/>
    <path d="" fill="#E9E9E9" transform="translate(0,0)"/>
    <path d="" fill="#E8E8E9" transform="translate(0,0)"/>
    <path d="" fill="#EAE9EA" transform="translate(0,0)"/>
    <path d="" fill="#E7E7E7" transform="translate(0,0)"/>
    <path d="" fill="#EBEAE9" transform="translate(0,0)"/>
    <path d="" fill="#EBE8EA" transform="translate(0,0)"/>
    <path d="" fill="#E8E6E7" transform="translate(0,0)"/>
    <path d="" fill="#E7E6E6" transform="translate(0,0)"/>
    <path d="" fill="#E6E4E5" transform="translate(0,0)"/>
    <path d="" fill="#E5E4E3" transform="translate(0,0)"/>
    <path d="" fill="#E6E4E4" transform="translate(0,0)"/>
    <path d="" fill="#E5E4E2" transform="translate(0,0)"/>
    <path d="" fill="#E5E3E5" transform="translate(0,0)"/>
    <path d="" fill="#E4E4E5" transform="translate(0,0)"/>
    <path d="M0 0 C2 1 2 1 2 1 Z " fill="#E5E3E4" transform="translate(748,184)"/>
    <path d="M0 0 C2 1 2 1 2 1 Z " fill="#E2E4E4" transform="translate(288,176)"/>
    <path d="" fill="#E3E4E2" transform="translate(0,0)"/>
    <path d="" fill="#E2E2E0" transform="translate(0,0)"/>
    <path d="M0 0 C2 1 2 1 2 1 Z " fill="#E4E5E5" transform="translate(388,129)"/>
    <path d="M0 0 C2 1 2 1 2 1 Z " fill="#E4E4E2" transform="translate(614,122)"/>
    <path d="M0 0 C2 1 2 1 2 1 Z " fill="#E3E4E4" transform="translate(606,121)"/>
    <path d="M0 0 C2 1 2 1 2 1 Z " fill="#E3E4E3" transform="translate(598,120)"/>
    <path d="M0 0 C2 1 2 1 2 1 Z " fill="#E6E7E6" transform="translate(421,120)"/>
    <path d="" fill="#ECEDEA" transform="translate(0,0)"/>
    <path d="" fill="#EBEBEA" transform="translate(0,0)"/>
    <path d="" fill="#ECEAEA" transform="translate(0,0)"/>
    <path d="" fill="#E9EBEA" transform="translate(0,0)"/>
    <path d="" fill="#E7E7E7" transform="translate(0,0)"/>
    <path d="" fill="#E8E6E8" transform="translate(0,0)"/>
    <path d="" fill="#E7E7E8" transform="translate(0,0)"/>
    <path d="" fill="#ECEAEB" transform="translate(0,0)"/>
    <path d="" fill="#E7E9E8" transform="translate(0,0)"/>
    <path d="" fill="#EBEAE9" transform="translate(0,0)"/>
    <path d="" fill="#E6E7E4" transform="translate(0,0)"/>
    <path d="" fill="#E8EAEA" transform="translate(0,0)"/>
    <path d="" fill="#E9E9E7" transform="translate(0,0)"/>
    <path d="" fill="#E7E8E6" transform="translate(0,0)"/>
    <path d="" fill="#E8E8E9" transform="translate(0,0)"/>
    <path d="" fill="#EAE8E8" transform="translate(0,0)"/>
    <path d="" fill="#E8E8E9" transform="translate(0,0)"/>
    <path d="" fill="#E7E7E7" transform="translate(0,0)"/>
    <path d="" fill="#E7E6E5" transform="translate(0,0)"/>
    <path d="" fill="#E7E7E9" transform="translate(0,0)"/>
    <path d="" fill="#E7E8E6" transform="translate(0,0)"/>
    <path d="" fill="#E5E3E3" transform="translate(0,0)"/>
    <path d="" fill="#E6E7E6" transform="translate(0,0)"/>
    <path d="" fill="#E7E8E8" transform="translate(0,0)"/>
    <path d="" fill="#E6E7E8" transform="translate(0,0)"/>
    <path d="" fill="#E5E6E4" transform="translate(0,0)"/>
    <path d="" fill="#E4E5E6" transform="translate(0,0)"/>
    <path d="" fill="#EBE9E7" transform="translate(0,0)"/>
    <path d="" fill="#E4E6E5" transform="translate(0,0)"/>
    <path d="" fill="#E4E4E4" transform="translate(0,0)"/>
    <path d="" fill="#E6E6E3" transform="translate(0,0)"/>
    <path d="" fill="#E6E8E6" transform="translate(0,0)"/>
    <path d="" fill="#E5E7E5" transform="translate(0,0)"/>
    <path d="" fill="#E6E6E7" transform="translate(0,0)"/>
    <path d="" fill="#E6E8E7" transform="translate(0,0)"/>
    <path d="" fill="#E3E7E5" transform="translate(0,0)"/>
    <path d="" fill="#E6E7E5" transform="translate(0,0)"/>
    <path d="" fill="#E6E5E5" transform="translate(0,0)"/>
    <path d="" fill="#E7E6E7" transform="translate(0,0)"/>
    <path d="" fill="#E4E4E4" transform="translate(0,0)"/>
    <path d="" fill="#E6E9E7" transform="translate(0,0)"/>
    <path d="" fill="#E4E4E3" transform="translate(0,0)"/>
    <path d="" fill="#E6E7E6" transform="translate(0,0)"/>
    <path d="" fill="#E4E5E4" transform="translate(0,0)"/>
    <path d="" fill="#E4E3E4" transform="translate(0,0)"/>
    <path d="" fill="#E7E4E6" transform="translate(0,0)"/>
    <path d="" fill="#E4E5E5" transform="translate(0,0)"/>
    <path d="" fill="#DFE2E1" transform="translate(0,0)"/>
    <path d="" fill="#E8E8E5" transform="translate(0,0)"/>
    <path d="" fill="#E1E4E2" transform="translate(0,0)"/>
    <path d="" fill="#E4E5E5" transform="translate(0,0)"/>
    <path d="" fill="#E5E4E5" transform="translate(0,0)"/>
    <path d="" fill="#E6E5E6" transform="translate(0,0)"/>
    <path d="" fill="#E8E5E4" transform="translate(0,0)"/>
    <path d="" fill="#E7E9E8" transform="translate(0,0)"/>
    <path d="" fill="#E4E4E5" transform="translate(0,0)"/>
    <path d="" fill="#E7E4E6" transform="translate(0,0)"/>
    <path d="" fill="#E3E3E3" transform="translate(0,0)"/>
    <path d="" fill="#E5E4E4" transform="translate(0,0)"/>
    <path d="" fill="#E5E5E4" transform="translate(0,0)"/>
    <path d="" fill="#E0E0E0" transform="translate(0,0)"/>
    <path d="" fill="#E7E7E3" transform="translate(0,0)"/>
    <path d="" fill="#E8E3E5" transform="translate(0,0)"/>
    <path d="" fill="#E7E7E8" transform="translate(0,0)"/>
    <path d="" fill="#E5E7E6" transform="translate(0,0)"/>
    <path d="" fill="#E6E6E4" transform="translate(0,0)"/>
    <path d="" fill="#E5E3E4" transform="translate(0,0)"/>
    <path d="" fill="#E2E2E3" transform="translate(0,0)"/>
    <path d="" fill="#E6E8E5" transform="translate(0,0)"/>
    <path d="" fill="#E2E3E3" transform="translate(0,0)"/>
    <path d="" fill="#E7E8E7" transform="translate(0,0)"/>
    <path d="" fill="#E5E3E4" transform="translate(0,0)"/>
    <path d="" fill="#E4E5E3" transform="translate(0,0)"/>
    <path d="" fill="#E6E6E4" transform="translate(0,0)"/>
    <path d="" fill="#E7E5E2" transform="translate(0,0)"/>
    <path d="" fill="#E5E5E4" transform="translate(0,0)"/>
    <path d="" fill="#E4E3E4" transform="translate(0,0)"/>
    <path d="" fill="#E6E8E4" transform="translate(0,0)"/>
    <path d="" fill="#E4E6E7" transform="translate(0,0)"/>
    <path d="" fill="#E7E7E5" transform="translate(0,0)"/>
    <path d="" fill="#E4E6E5" transform="translate(0,0)"/>
    <path d="" fill="#E7E6E4" transform="translate(0,0)"/>
    <path d="" fill="#E5E3E4" transform="translate(0,0)"/>
    <path d="" fill="#E7E3E6" transform="translate(0,0)"/>
    <path d="" fill="#E1E3E1" transform="translate(0,0)"/>
    <path d="" fill="#E3E1E2" transform="translate(0,0)"/>
    <path d="" fill="#E5E5E5" transform="translate(0,0)"/>
    <path d="" fill="#E4E4E4" transform="translate(0,0)"/>
    <path d="" fill="#E3E4E4" transform="translate(0,0)"/>
    <path d="" fill="#E7E5E5" transform="translate(0,0)"/>
    <path d="" fill="#E4E4E4" transform="translate(0,0)"/>
    <path d="" fill="#E4E4E2" transform="translate(0,0)"/>
    <path d="" fill="#E4E3E3" transform="translate(0,0)"/>
    <path d="" fill="#E7E6E5" transform="translate(0,0)"/>
    <path d="" fill="#E5E4E5" transform="translate(0,0)"/>
    <path d="" fill="#E4E3E2" transform="translate(0,0)"/>
    <path d="" fill="#E4E4E4" transform="translate(0,0)"/>
    <path d="" fill="#E3E1E0" transform="translate(0,0)"/>
    <path d="" fill="#E5E7E5" transform="translate(0,0)"/>
    <path d="" fill="#E4E5E3" transform="translate(0,0)"/>
    <path d="" fill="#E7E7E7" transform="translate(0,0)"/>
    <path d="" fill="#E5E4E4" transform="translate(0,0)"/>
    <path d="" fill="#E1E1DE" transform="translate(0,0)"/>
    <path d="" fill="#E4E3E2" transform="translate(0,0)"/>
    <path d="" fill="#E2E1E4" transform="translate(0,0)"/>
    <path d="" fill="#E5E4E4" transform="translate(0,0)"/>
    <path d="" fill="#E3E2E3" transform="translate(0,0)"/>
    <path d="" fill="#E5E2E5" transform="translate(0,0)"/>
    <path d="" fill="#E3E6E6" transform="translate(0,0)"/>
    <path d="" fill="#E3E3E1" transform="translate(0,0)"/>
    <path d="" fill="#E7E3E4" transform="translate(0,0)"/>
    <path d="" fill="#E4E5E3" transform="translate(0,0)"/>
    <path d="" fill="#E1E3E3" transform="translate(0,0)"/>
    <path d="" fill="#E4E5E6" transform="translate(0,0)"/>
    <path d="" fill="#E4E2E1" transform="translate(0,0)"/>
    <path d="" fill="#E1E2E3" transform="translate(0,0)"/>
    <path d="" fill="#E6E6E6" transform="translate(0,0)"/>
    <path d="" fill="#E3E2E2" transform="translate(0,0)"/>
    <path d="" fill="#E6E5E2" transform="translate(0,0)"/>
    <path d="" fill="#E4E2E0" transform="translate(0,0)"/>
    <path d="" fill="#E4E3E3" transform="translate(0,0)"/>
    <path d="" fill="#E7E8E8" transform="translate(0,0)"/>
    <path d="" fill="#E8E6E5" transform="translate(0,0)"/>
    <path d="" fill="#E4E4E2" transform="translate(0,0)"/>
    <path d="" fill="#E6E6E5" transform="translate(0,0)"/>
    <path d="" fill="#E6E7E5" transform="translate(0,0)"/>
    <path d="" fill="#E7E6E5" transform="translate(0,0)"/>
    <path d="" fill="#E7E5E7" transform="translate(0,0)"/>
    <path d="" fill="#E8E8E7" transform="translate(0,0)"/>
    <path d="" fill="#E8E7E7" transform="translate(0,0)"/>
    <path d="" fill="#E8E8E8" transform="translate(0,0)"/>
    <path d="" fill="#E7E7E5" transform="translate(0,0)"/>
    <path d="" fill="#E5E5E3" transform="translate(0,0)"/>
    <path d="" fill="#E7E7E8" transform="translate(0,0)"/>
    <path d="" fill="#EBE5E8" transform="translate(0,0)"/>
    <path d="" fill="#E5E6E5" transform="translate(0,0)"/>
    <path d="" fill="#EAEAE7" transform="translate(0,0)"/>
    <path d="" fill="#E9E5E5" transform="translate(0,0)"/>
    <path d="" fill="#E9E8E9" transform="translate(0,0)"/>
    <path d="" fill="#E7E8E8" transform="translate(0,0)"/>
    <path d="" fill="#E8E8E9" transform="translate(0,0)"/>
    <path d="" fill="#E7E7E6" transform="translate(0,0)"/>
    <path d="" fill="#E8E7E8" transform="translate(0,0)"/>
    <path d="" fill="#E8E8E5" transform="translate(0,0)"/>
    <path d="" fill="#EAEBEA" transform="translate(0,0)"/>
    <path d="" fill="#E9E9E7" transform="translate(0,0)"/>
    <path d="" fill="#E9E8E8" transform="translate(0,0)"/>
    <path d="" fill="#EAE7E7" transform="translate(0,0)"/>
    <path d="" fill="#EBE9E9" transform="translate(0,0)"/>
    <path d="" fill="#E9EAE8" transform="translate(0,0)"/>
    <path d="" fill="#EAE9E8" transform="translate(0,0)"/>
    <path d="" fill="#EBEAE9" transform="translate(0,0)"/>
    <path d="" fill="#EAEAE9" transform="translate(0,0)"/>
    <path d="" fill="#EAE8E7" transform="translate(0,0)"/>
    <path d="" fill="#E8E9E9" transform="translate(0,0)"/>
    <path d="" fill="#E9EBEB" transform="translate(0,0)"/>
    <path d="" fill="#EBE9E9" transform="translate(0,0)"/>
    <path d="" fill="#E9EAEA" transform="translate(0,0)"/>
    <path d="" fill="#E9E9E8" transform="translate(0,0)"/>
    <path d="" fill="#ECEBE9" transform="translate(0,0)"/>
    <path d="" fill="#EAE9E9" transform="translate(0,0)"/>
    <path d="" fill="#EBEBE9" transform="translate(0,0)"/>
    <path d="" fill="#E9E9E9" transform="translate(0,0)"/>
    <path d="" fill="#EAEAE7" transform="translate(0,0)"/>
    <path d="" fill="#E9EBE9" transform="translate(0,0)"/>
    <path d="" fill="#E8E8E9" transform="translate(0,0)"/>
    <path d="" fill="#EBE9EA" transform="translate(0,0)"/>
    <path d="" fill="#ECEBE8" transform="translate(0,0)"/>
    <path d="" fill="#E7E8E9" transform="translate(0,0)"/>
    <path d="" fill="#E8E7E7" transform="translate(0,0)"/>
    <path d="" fill="#E7E9EA" transform="translate(0,0)"/>
    <path d="" fill="#E4E9E7" transform="translate(0,0)"/>
    <path d="" fill="#E8E8E8" transform="translate(0,0)"/>
    <path d="" fill="#E9E8E6" transform="translate(0,0)"/>
    <path d="" fill="#E9E8E8" transform="translate(0,0)"/>
    <path d="" fill="#E6E8E4" transform="translate(0,0)"/>
    <path d="" fill="#E6E6E6" transform="translate(0,0)"/>
    <path d="" fill="#E8E5E7" transform="translate(0,0)"/>
    <path d="" fill="#E7E5E6" transform="translate(0,0)"/>
    <path d="" fill="#E8E8E4" transform="translate(0,0)"/>
    <path d="" fill="#E6E6E6" transform="translate(0,0)"/>
    <path d="" fill="#E5E4E4" transform="translate(0,0)"/>
    <path d="" fill="#E6E5E6" transform="translate(0,0)"/>
    <path d="" fill="#E7E5E4" transform="translate(0,0)"/>
    <path d="" fill="#E6E8E5" transform="translate(0,0)"/>
    <path d="" fill="#E7E9E9" transform="translate(0,0)"/>
    <path d="" fill="#E6E6E6" transform="translate(0,0)"/>
    <path d="" fill="#E7E6E6" transform="translate(0,0)"/>
    <path d="" fill="#E3E5E4" transform="translate(0,0)"/>
    <path d="" fill="#E2E5E2" transform="translate(0,0)"/>
    <path d="" fill="#E3E4E3" transform="translate(0,0)"/>
    <path d="" fill="#E6E3E4" transform="translate(0,0)"/>
    <path d="" fill="#E4E4E2" transform="translate(0,0)"/>
    <path d="" fill="#E5E5E3" transform="translate(0,0)"/>
    <path d="" fill="#EAEAE8" transform="translate(0,0)"/>
    <path d="" fill="#E4E5E5" transform="translate(0,0)"/>
    <path d="" fill="#E3E3E4" transform="translate(0,0)"/>
    <path d="" fill="#E4E3DF" transform="translate(0,0)"/>
    <path d="" fill="#E5E5E3" transform="translate(0,0)"/>
    <path d="" fill="#DEDEDD" transform="translate(0,0)"/>
    <path d="" fill="#E4E4E3" transform="translate(0,0)"/>
    <path d="" fill="#E1E0E3" transform="translate(0,0)"/>
    <path d="" fill="#E3E2E0" transform="translate(0,0)"/>
    <path d="" fill="#DFE1E0" transform="translate(0,0)"/>
    <path d="" fill="#E4E3E6" transform="translate(0,0)"/>
    <path d="" fill="#E3E4E3" transform="translate(0,0)"/>
    <path d="" fill="#DFE1DE" transform="translate(0,0)"/>
    <path d="" fill="#E1E0DF" transform="translate(0,0)"/>
    <path d="" fill="#E5E4E5" transform="translate(0,0)"/>
    <path d="" fill="#E3E2E5" transform="translate(0,0)"/>
    <path d="" fill="#E4E2E3" transform="translate(0,0)"/>
    <path d="" fill="#E4E4E3" transform="translate(0,0)"/>
    <path d="" fill="#E2E2E1" transform="translate(0,0)"/>
    <path d="" fill="#E2E3E3" transform="translate(0,0)"/>
    <path d="" fill="#E1E0DF" transform="translate(0,0)"/>
    <path d="" fill="#E1E1E5" transform="translate(0,0)"/>
    <path d="" fill="#E1E2E2" transform="translate(0,0)"/>
    <path d="" fill="#E2E1E3" transform="translate(0,0)"/>
    <path d="" fill="#E3E4E3" transform="translate(0,0)"/>
    <path d="" fill="#E3E6E4" transform="translate(0,0)"/>
    <path d="" fill="#E2E2E2" transform="translate(0,0)"/>
    <path d="" fill="#E2E2E4" transform="translate(0,0)"/>
    <path d="" fill="#E4E6E6" transform="translate(0,0)"/>
    <path d="" fill="#DEDEE0" transform="translate(0,0)"/>
    <path d="" fill="#E6E3E6" transform="translate(0,0)"/>
    <path d="" fill="#E8E6E7" transform="translate(0,0)"/>
    <path d="" fill="#E2E2E1" transform="translate(0,0)"/>
    <path d="" fill="#E5E4E4" transform="translate(0,0)"/>
    <path d="" fill="#E6E6E7" transform="translate(0,0)"/>
    <path d="" fill="#E4E4E4" transform="translate(0,0)"/>
    <path d="" fill="#E3E4E3" transform="translate(0,0)"/>
    <path d="" fill="#E4E5E2" transform="translate(0,0)"/>
    <path d="" fill="#E6E4E4" transform="translate(0,0)"/>
    <path d="" fill="#E7E5E3" transform="translate(0,0)"/>
    <path d="" fill="#E3E5E3" transform="translate(0,0)"/>
    <path d="" fill="#E7E4E4" transform="translate(0,0)"/>
    <path d="" fill="#E4E5E0" transform="translate(0,0)"/>
    <path d="" fill="#E2E2E4" transform="translate(0,0)"/>
    <path d="" fill="#E5E5E3" transform="translate(0,0)"/>
    <path d="" fill="#E4E6E2" transform="translate(0,0)"/>
    <path d="" fill="#E7E6E4" transform="translate(0,0)"/>
    <path d="" fill="#E5E7E4" transform="translate(0,0)"/>
    <path d="" fill="#E4E3E1" transform="translate(0,0)"/>
    <path d="" fill="#E5E5E4" transform="translate(0,0)"/>
    <path d="" fill="#E4E5E4" transform="translate(0,0)"/>
    <path d="" fill="#E5E5E7" transform="translate(0,0)"/>
    <path d="" fill="#E1E1E0" transform="translate(0,0)"/>
    <path d="" fill="#E2E5E2" transform="translate(0,0)"/>
    <path d="" fill="#E8E7E6" transform="translate(0,0)"/>
    <path d="" fill="#E3E5E4" transform="translate(0,0)"/>
    <path d="" fill="#E4E4E1" transform="translate(0,0)"/>
    <path d="" fill="#E3E4E4" transform="translate(0,0)"/>
    <path d="" fill="#E4E6E5" transform="translate(0,0)"/>
    <path d="" fill="#E6E4E5" transform="translate(0,0)"/>
    <path d="" fill="#E6E6E6" transform="translate(0,0)"/>
    <path d="" fill="#E3E3E4" transform="translate(0,0)"/>
    <path d="" fill="#E5E5E5" transform="translate(0,0)"/>
    <path d="" fill="#E5E8E6" transform="translate(0,0)"/>
    <path d="" fill="#E5E5E5" transform="translate(0,0)"/>
    <path d="" fill="#E4E2E2" transform="translate(0,0)"/>
    <path d="" fill="#E3E2E3" transform="translate(0,0)"/>
    <path d="" fill="#E3E5E2" transform="translate(0,0)"/>
    <path d="" fill="#E3E4E4" transform="translate(0,0)"/>
    <path d="" fill="#E6E5E3" transform="translate(0,0)"/>
    <path d="" fill="#E6E7E4" transform="translate(0,0)"/>
    <path d="" fill="#E1E3E2" transform="translate(0,0)"/>
    <path d="" fill="#E6E5E4" transform="translate(0,0)"/>
    <path d="" fill="#E6E6E5" transform="translate(0,0)"/>
    <path d="" fill="#E2E3E2" transform="translate(0,0)"/>
    <path d="" fill="#E4E4E3" transform="translate(0,0)"/>
    <path d="" fill="#E6E6E4" transform="translate(0,0)"/>
    <path d="" fill="#E6E6E7" transform="translate(0,0)"/>
    <path d="" fill="#E6E6E5" transform="translate(0,0)"/>
    <path d="" fill="#E4E6E7" transform="translate(0,0)"/>
    <path d="" fill="#E3E3E2" transform="translate(0,0)"/>
    <path d="" fill="#DEDFDD" transform="translate(0,0)"/>
    <path d="" fill="#E3E4E1" transform="translate(0,0)"/>
    <path d="" fill="#E6E4E3" transform="translate(0,0)"/>
    <path d="" fill="#E8E9E6" transform="translate(0,0)"/>
    <path d="" fill="#E5E7E6" transform="translate(0,0)"/>
    <path d="" fill="#E4E7E3" transform="translate(0,0)"/>
    <path d="" fill="#E5E5E3" transform="translate(0,0)"/>
    <path d="" fill="#E5E7E7" transform="translate(0,0)"/>
    <path d="" fill="#E2E2DF" transform="translate(0,0)"/>
    <path d="" fill="#E3E6E6" transform="translate(0,0)"/>
    <path d="" fill="#EBE8E9" transform="translate(0,0)"/>
    <path d="" fill="#E6E8E7" transform="translate(0,0)"/>
    <path d="" fill="#E3E3E4" transform="translate(0,0)"/>
    <path d="" fill="#E4E5E3" transform="translate(0,0)"/>
    <path d="" fill="#E9E8E7" transform="translate(0,0)"/>
    <path d="" fill="#E7E8E6" transform="translate(0,0)"/>
    <path d="" fill="#E8E5E6" transform="translate(0,0)"/>
    <path d="" fill="#E7E7E5" transform="translate(0,0)"/>
    <path d="" fill="#E6E6E3" transform="translate(0,0)"/>
    <path d="" fill="#E7E8E4" transform="translate(0,0)"/>
    <path d="" fill="#E7E8E7" transform="translate(0,0)"/>
    <path d="" fill="#E6E5E5" transform="translate(0,0)"/>
    <path d="" fill="#E6E7E3" transform="translate(0,0)"/>
    <path d="" fill="#E7E7E5" transform="translate(0,0)"/>
    <path d="" fill="#E7E9E5" transform="translate(0,0)"/>
</svg>
